<svg width="96" height="94" viewBox="0 0 96 94" fill="none" xmlns="http://www.w3.org/2000/svg">
<path d="M46.8964 9.94742L43.4401 3.484L43.3193 3.26694C42.9913 2.67746 42.5894 2.13232 42.1231 1.64476C41.922 1.43436 41.7015 1.24329 41.4646 1.07405L41.4117 1.03621C41.0774 0.797366 40.6642 0.695813 40.2573 0.752473L40.0348 0.783455C39.83 0.81197 39.6372 0.897014 39.4781 1.02904C39.0699 1.36769 38.7353 1.78619 38.4947 2.25885L37.9898 3.25081L37.435 4.51857L17.2061 53.8683C17.0821 54.1706 17.4624 54.4251 17.6947 54.1953L43.0135 29.1395L45.6073 26.0004L47.8114 22.9157L48.4758 21.7426C48.9265 20.9468 49.3015 20.1104 49.5958 19.2445C49.7242 18.8666 49.7739 18.4665 49.7419 18.0688L49.7273 17.8882C49.6746 17.2347 49.5606 16.5876 49.387 15.9554C49.1066 14.9344 48.7423 13.9384 48.2979 12.9774L46.8964 9.94742Z" fill="#24E7A0"/>
<path d="M75.7706 64.5593L54.4988 24.3656L54.529 30.7108L55.4663 40.6996L56.0889 51.1291L56.8088 58.9657L56.9099 60.4808C56.9818 61.5568 57.2682 62.6075 57.7524 63.5711C58.1274 64.3174 58.6785 64.9611 59.358 65.4466L59.4984 65.5469C60.102 65.9782 60.7938 66.2699 61.5239 66.401L62.2818 66.5372L65.5505 66.8757L74.0346 67.2894C74.667 67.3203 75.2718 67.0275 75.6399 66.5123C76.0498 65.9386 76.1004 65.1825 75.7706 64.5593Z" fill="#24E7A0"/>
<path d="M36.9718 66.0929L51.1269 66.4782C51.7958 66.4964 52.2935 65.8652 52.1198 65.2189L51.0286 61.1594L49.8889 57.3497L48.5243 52.3808L47.356 47.9515C47.1302 47.0957 46.6564 46.3258 45.9941 45.7387C45.3958 45.2082 44.6508 44.8713 43.8572 44.7725L43.2563 44.6977C42.9653 44.6614 42.6716 44.6523 42.3789 44.6705L41.8729 44.7019C40.7974 44.7687 39.7416 45.0214 38.7525 45.449L38.7193 45.4633C38.3843 45.6081 38.063 45.7829 37.7594 45.9855L28.8221 51.9494L18.4164 58.1603L15.755 59.9198L14.4809 60.8147C13.9314 61.2006 13.4985 61.73 13.2293 62.3451C13.1378 62.5544 13.1347 62.7918 13.2209 63.0034L13.2646 63.1107C13.3978 63.4377 13.621 63.7203 13.9083 63.9256L14.1077 64.068C14.3009 64.2061 14.5066 64.3257 14.7221 64.4253L14.7642 64.4448C15.3941 64.736 16.0734 64.9057 16.7663 64.9451L36.9718 66.0929Z" fill="#24E7A0"/>
</svg>
